/* XPM */
static char *c155f36735ab440b9da664da9e695e8eMUPjWOkAXKjY9J3V[] = {
/* columns rows colors chars-per-pixel */
"16 16 2 1 ",
"  c #C7506B",
". c #69C976",
/* pixels */
"................",
"................",
"................",
"................",
"................",
"......    ......",
"...... .........",
"......   .......",
"...... .........",
"...... .........",
"......    ......",
"................",
"................",
"................",
"................",
"................"
};
