/* XPM */
static char *ed00b72aaefc476ea68b1b7bcd4e9026xNy9N7djMZ9xcbYC[] = {
/* columns rows colors chars-per-pixel */
"64 64 2 1 ",
"  c #C7506B",
". c #69C976",
/* pixels */
"................................................................",
"................................................................",
"................................................................",
"................................................................",
"................................................................",
"................................................................",
"................................................................",
"................................................................",
"................................................................",
"................................................................",
"................................................................",
"................................................................",
"................................................................",
"................................................................",
"................................................................",
"................................................................",
"................................................................",
"................................................................",
"................................................................",
"................................................................",
"........................                ........................",
"........................                ........................",
"........................                ........................",
"........................                ........................",
"........................    ....................................",
"........................    ....................................",
"........................    ....................................",
"........................    ....................................",
"........................            ............................",
"........................            ............................",
"........................            ............................",
"........................            ............................",
"........................    ....................................",
"........................    ....................................",
"........................    ....................................",
"........................    ....................................",
"........................    ....................................",
"........................    ....................................",
"........................    ....................................",
"........................    ....................................",
"........................                ........................",
"........................                ........................",
"........................                ........................",
"........................                ........................",
"................................................................",
"................................................................",
"................................................................",
"................................................................",
"................................................................",
"................................................................",
"................................................................",
"................................................................",
"................................................................",
"................................................................",
"................................................................",
"................................................................",
"................................................................",
"................................................................",
"................................................................",
"................................................................",
"................................................................",
"................................................................",
"................................................................",
"................................................................"
};
