/* XPM */
static char *_aa1b2fbf2b44f79eb9be2191f82e32eiG0flFHRvksAqcfq[] = {
/* columns rows colors chars-per-pixel */
"64 64 2 1 ",
"  c #3A224F",
". c #FCC88D",
/* pixels */
"                                                                ",
"                                                                ",
"                                                                ",
"                                                                ",
"                                                                ",
"                                                                ",
"                                                                ",
"                                                                ",
"                                                                ",
"                                                                ",
"                                                                ",
"                                                                ",
"                                                                ",
"                                                                ",
"                                                                ",
"                                                                ",
"                                                                ",
"                                                                ",
"                                                                ",
"                                                                ",
"                        ....        ....                        ",
"                        ....        ....                        ",
"                        ....        ....                        ",
"                        ....        ....                        ",
"                        ........    ....                        ",
"                        ........    ....                        ",
"                        ........    ....                        ",
"                        ........    ....                        ",
"                        ....    ........                        ",
"                        ....    ........                        ",
"                        ....    ........                        ",
"                        ....    ........                        ",
"                        ....        ....                        ",
"                        ....        ....                        ",
"                        ....        ....                        ",
"                        ....        ....                        ",
"                        ....        ....                        ",
"                        ....        ....                        ",
"                        ....        ....                        ",
"                        ....        ....                        ",
"                        ....        ....                        ",
"                        ....        ....                        ",
"                        ....        ....                        ",
"                        ....        ....                        ",
"                                                                ",
"                                                                ",
"                                                                ",
"                                                                ",
"                                                                ",
"                                                                ",
"                                                                ",
"                                                                ",
"                                                                ",
"                                                                ",
"                                                                ",
"                                                                ",
"                                                                ",
"                                                                ",
"                                                                ",
"                                                                ",
"                                                                ",
"                                                                ",
"                                                                ",
"                                                                "
};
