/* XPM */
static char *_93e61dba2f748e3ab96b079bec8e93d6LofyLth0H1ltNGE[] = {
/* columns rows colors chars-per-pixel */
"16 16 2 1 ",
"  c #3A224F",
". c #FCC88D",
/* pixels */
"                ",
"                ",
"                ",
"                ",
"                ",
"      .  .      ",
"      .. .      ",
"      . ..      ",
"      .  .      ",
"      .  .      ",
"      .  .      ",
"                ",
"                ",
"                ",
"                ",
"                "
};
