/* XPM */
static char *_81af680b3e8443f930db12de2af0e83M6dUmbD2wdr1lCGQ[] = {
/* columns rows colors chars-per-pixel */
"16 16 2 1 ",
"  c #A34474",
". c #ED9E70",
/* pixels */
"................",
"................",
"................",
"................",
"................",
".......  .......",
"...... .........",
".......  .......",
"......... ......",
"...... .. ......",
".......  .......",
"................",
"................",
"................",
"................",
"................"
};
