/* XPM */
static char *ffc86d04aeb34dfe95846afaf4fbe2f3eL1QcAgSyDDOy39N[] = {
/* columns rows colors chars-per-pixel */
"64 64 2 1 ",
"  c #A34474",
". c #ED9E70",
/* pixels */
"................................................................",
"................................................................",
"................................................................",
"................................................................",
"................................................................",
"................................................................",
"................................................................",
"................................................................",
"................................................................",
"................................................................",
"................................................................",
"................................................................",
"................................................................",
"................................................................",
"................................................................",
"................................................................",
"................................................................",
"................................................................",
"................................................................",
"................................................................",
"............................        ............................",
"............................        ............................",
"............................        ............................",
"............................        ............................",
"........................    ....................................",
"........................    ....................................",
"........................    ....................................",
"........................    ....................................",
"............................        ............................",
"............................        ............................",
"............................        ............................",
"............................        ............................",
"....................................    ........................",
"....................................    ........................",
"....................................    ........................",
"....................................    ........................",
"........................    ........    ........................",
"........................    ........    ........................",
"........................    ........    ........................",
"........................    ........    ........................",
"............................        ............................",
"............................        ............................",
"............................        ............................",
"............................        ............................",
"................................................................",
"................................................................",
"................................................................",
"................................................................",
"................................................................",
"................................................................",
"................................................................",
"................................................................",
"................................................................",
"................................................................",
"................................................................",
"................................................................",
"................................................................",
"................................................................",
"................................................................",
"................................................................",
"................................................................",
"................................................................",
"................................................................",
"................................................................"
};
