/* XPM */
static char *ad4bd027f91a4e39b55d98da6410788dUL5fkJRxzE5L0fl8[] = {
/* columns rows colors chars-per-pixel */
"16 16 2 1 ",
"  c #223D54",
". c #F0EBA8",
/* pixels */
"                ",
"                ",
"                ",
"                ",
"                ",
"     .    .     ",
"     .    .     ",
"     .    .     ",
"     .    .     ",
"     . .. .     ",
"      .  .      ",
"                ",
"                ",
"                ",
"                ",
"                "
};
